<svg width="63" height="63" viewBox="0 0 63 63" fill="none" xmlns="http://www.w3.org/2000/svg">
<path d="M32.1194 18.8857H31.458V19.8066H32.1194C32.2732 19.8066 32.3982 19.7643 32.4885 19.6798C32.5828 19.5951 32.6308 19.4836 32.6308 19.3452C32.6308 19.2087 32.5827 19.0991 32.4885 19.0126C32.3982 18.9281 32.2732 18.8857 32.1194 18.8857Z" fill="#F08014"/>
<path d="M17.3188 20.8122C17.3362 20.7641 17.3534 20.7025 17.3612 20.6334C17.3727 20.5623 17.3785 20.4776 17.3823 20.3777C17.3862 20.2796 17.3862 20.1604 17.3862 20.022C17.3862 19.8855 17.3862 19.7681 17.3823 19.6682C17.3785 19.5683 17.3727 19.4836 17.3612 19.4125C17.3534 19.3414 17.3362 19.2837 17.3188 19.2337C17.2997 19.1838 17.2727 19.1414 17.24 19.1011C17.1227 18.9569 16.9497 18.8857 16.7151 18.8857H16.1807V21.1601H16.7152C16.9497 21.1601 17.1228 21.087 17.2401 20.9448C17.2727 20.9044 17.2997 20.8602 17.3188 20.8122Z" fill="#F08014"/>
<path d="M10.8548 19.6798C10.947 19.5951 10.9951 19.4836 10.9951 19.3452C10.9951 19.2087 10.947 19.0991 10.8548 19.0126C10.7625 18.9279 10.6394 18.8857 10.4836 18.8857H9.82227V19.8066H10.4836C10.6394 19.8066 10.7625 19.7643 10.8548 19.6798Z" fill="#F08014"/>
<path d="M28.2852 20.5756H29.1792L28.739 19.3066L28.2852 20.5756Z" fill="#F08014"/>
<path d="M57.4206 10.8281H5.57944C2.49945 10.8281 0 13.3276 0 16.4076V46.5926C0 49.6725 2.49945 52.1719 5.57944 52.1719H57.4207C60.5007 52.1719 63 49.6725 63 46.5924V16.4076C63 13.3276 60.5007 10.8281 57.4206 10.8281ZM53.6061 17.019C55.125 17.019 56.3555 18.2495 56.3555 19.7683C56.3555 21.2872 55.125 22.5176 53.6061 22.5176C52.0872 22.5176 50.8568 21.2871 50.8568 19.7682C50.8568 18.2493 52.0873 17.019 53.6061 17.019ZM46.2502 17.019C47.7691 17.019 48.9996 18.2495 48.9996 19.7683C48.9996 21.2872 47.7691 22.5176 46.2502 22.5176C44.7314 22.5176 43.5009 21.2871 43.5009 19.7682C43.5009 18.2493 44.7314 17.019 46.2502 17.019ZM34.057 18.2763H35.3548C35.6009 18.2763 35.8105 18.3186 35.9874 18.3993C36.1604 18.482 36.3104 18.6108 36.4412 18.7877C36.4951 18.8626 36.5373 18.9415 36.5681 19.0261C36.6008 19.1088 36.6258 19.1991 36.6373 19.2992C36.6489 19.3992 36.6605 19.5087 36.6623 19.6279C36.6661 19.7472 36.6681 19.8798 36.6681 20.0221C36.6681 20.1663 36.6661 20.2989 36.6623 20.4182C36.6603 20.5374 36.6489 20.6451 36.6373 20.745C36.6258 20.8449 36.6008 20.9373 36.5681 21.0199C36.5373 21.1025 36.495 21.1833 36.4412 21.2583C36.3104 21.4333 36.1605 21.564 35.9874 21.6448C35.8105 21.7275 35.6009 21.7679 35.3548 21.7679H34.057V18.2763ZM24.2883 19.5722C24.2941 19.4376 24.3075 19.3145 24.3287 19.2011C24.3518 19.0876 24.3864 18.9838 24.4344 18.8915C24.4844 18.7954 24.5536 18.7031 24.644 18.6147C24.769 18.4992 24.9092 18.407 25.063 18.3436C25.2188 18.2801 25.4014 18.2493 25.6091 18.2493C25.9455 18.2493 26.2321 18.3416 26.4705 18.5262C26.7088 18.7108 26.8588 18.9838 26.9261 19.351H26.209C26.1744 19.2068 26.1089 19.0875 26.0128 18.9952C25.9167 18.903 25.7821 18.8568 25.6091 18.8568C25.513 18.8568 25.4246 18.8722 25.3496 18.9049C25.2727 18.9377 25.2112 18.9818 25.1593 19.0376C25.1247 19.0721 25.0977 19.1145 25.0766 19.1606C25.0554 19.2068 25.0362 19.2645 25.0227 19.3376C25.0093 19.4087 24.9977 19.4991 24.9939 19.6086C24.9861 19.7183 24.9823 19.8567 24.9823 20.0219C24.9823 20.1892 24.9861 20.3276 24.9939 20.4372C24.9977 20.5469 25.0093 20.6372 25.0227 20.7103C25.0361 20.7795 25.0554 20.8411 25.0766 20.8852C25.0977 20.9314 25.1247 20.9717 25.1593 21.0083C25.2112 21.064 25.2727 21.1064 25.3496 21.1409C25.4246 21.1717 25.513 21.189 25.6091 21.189C25.7821 21.189 25.9206 21.1429 26.0148 21.0486C26.1129 20.9564 26.1782 20.8371 26.2148 20.6949H26.9261C26.8588 21.0602 26.7088 21.3351 26.4705 21.5197C26.232 21.7062 25.9455 21.7985 25.6091 21.7985C25.4014 21.7985 25.2188 21.7639 25.063 21.7024C24.9092 21.6371 24.7688 21.5466 24.644 21.4294C24.5536 21.3409 24.4844 21.2486 24.4344 21.1563C24.3863 21.0602 24.3517 20.9564 24.3287 20.8449C24.3075 20.7314 24.2941 20.6064 24.2883 20.4738C24.2845 20.3392 24.2806 20.1892 24.2806 20.0219C24.2806 19.8567 24.2844 19.7067 24.2883 19.5722ZM20.0778 18.2763H22.658V18.8857H21.7197V21.7677H21.018V18.8857H20.0778V18.2763ZM18.807 18.2763H19.5069V21.7677H18.807V18.2763ZM15.4789 18.2763H16.7767C17.0228 18.2763 17.2305 18.3186 17.4073 18.3993C17.5823 18.482 17.7341 18.6108 17.8611 18.7877C17.915 18.8626 17.9572 18.9415 17.9899 19.0261C18.0227 19.1088 18.0457 19.1991 18.0592 19.2992C18.0728 19.3992 18.0804 19.5087 18.0842 19.6279C18.088 19.7472 18.088 19.8798 18.088 20.0221C18.088 20.1663 18.088 20.2989 18.0842 20.4182C18.0804 20.5374 18.0726 20.6451 18.0592 20.745C18.0458 20.8449 18.0227 20.9373 17.9899 21.0199C17.9572 21.1024 17.915 21.1833 17.8611 21.2583C17.7343 21.4333 17.5823 21.564 17.4073 21.6448C17.2304 21.7275 17.0228 21.7679 16.7767 21.7679H15.4789V18.2763ZM12.4239 18.2763H14.7888V18.8857H13.1238V19.7029H14.5427V20.3123H13.1238V21.1602H14.7888V21.7679H12.4239V18.2763ZM9.12085 18.2763H10.5301C10.7127 18.2763 10.8743 18.307 11.0185 18.3628C11.1627 18.4205 11.2857 18.4974 11.3876 18.5935C11.4895 18.6896 11.5664 18.803 11.6164 18.9319C11.6703 19.0607 11.6971 19.1991 11.6971 19.3452C11.6971 19.4702 11.6779 19.5817 11.6432 19.6797C11.6066 19.7778 11.5585 19.8643 11.5009 19.9412C11.4394 20.0181 11.3701 20.0835 11.2894 20.1374C11.2106 20.1913 11.1279 20.2335 11.0395 20.2624L11.8431 21.7677H11.028L10.3281 20.3757H9.82246V21.7677H9.12073L9.12085 18.2763ZM7.42514 35.1606V32.469H11.5164V35.1606H7.42514ZM11.5164 36.022V38.929H9.25546C8.24414 38.929 7.42514 38.11 7.42514 37.0986V36.022H11.5164ZM7.42514 31.6077V28.916H11.5164V31.6077H7.42514ZM7.42514 28.0547V26.978C7.42514 25.9667 8.24414 25.1477 9.25546 25.1477H11.5164V28.0547H7.42514ZM5.86786 20.0221C5.86786 19.8567 5.87167 19.7067 5.87561 19.5722C5.88139 19.4376 5.89481 19.3145 5.91794 19.2011C5.9391 19.0876 5.97565 18.9838 6.02179 18.8915C6.07175 18.7954 6.14102 18.7031 6.23331 18.6147C6.35636 18.4992 6.49478 18.407 6.65241 18.3436C6.80621 18.2801 6.98882 18.2493 7.19652 18.2493C7.53293 18.2493 7.82135 18.3416 8.05982 18.5262C8.29631 18.7108 8.44631 18.9838 8.51361 19.351H7.79834C7.7618 19.2068 7.69646 19.0875 7.60221 18.9952C7.50611 18.903 7.37149 18.8568 7.19652 18.8568C7.09845 18.8568 7.01392 18.8722 6.93701 18.9049C6.86011 18.9377 6.79859 18.9818 6.74863 19.0376C6.71405 19.0721 6.68711 19.1145 6.66397 19.1606C6.64281 19.2068 6.62546 19.2645 6.61008 19.3376C6.59667 19.4087 6.58695 19.4991 6.58129 19.6086C6.57563 19.7181 6.57169 19.8567 6.57169 20.0219C6.57169 20.1892 6.5755 20.3276 6.58129 20.4372C6.58707 20.5469 6.59667 20.6372 6.61008 20.7103C6.62546 20.7795 6.64281 20.8411 6.66397 20.8852C6.68711 20.9314 6.71393 20.9717 6.74863 21.0083C6.79859 21.064 6.86011 21.1064 6.93701 21.1409C7.01392 21.1717 7.09857 21.189 7.19652 21.189C7.37149 21.189 7.50795 21.1429 7.60221 21.0486C7.70027 20.9564 7.76561 20.8371 7.80216 20.6949H8.51349C8.44618 21.0602 8.29619 21.3351 8.05969 21.5197C7.82123 21.7062 7.53293 21.7985 7.1964 21.7985C6.98869 21.7985 6.80609 21.7639 6.65228 21.7024C6.49466 21.6371 6.35623 21.5466 6.23319 21.4294C6.1409 21.3409 6.07162 21.2486 6.02167 21.1563C5.97553 21.0602 5.93898 20.9564 5.91782 20.8449C5.89468 20.7314 5.88127 20.6064 5.87549 20.4738C5.87167 20.3393 5.86786 20.1893 5.86786 20.0221ZM15.75 45.6081H5.90625V43.6393H15.75V45.6081ZM16.2538 28.0547V28.916V30.0273V30.1003V31.6077V32.469V33.6533V34.3339V35.1606V36.022V37.6715V38.929H12.3778V37.6715V36.022V35.1606V34.3339V33.6533V32.469V31.6077V30.1003V30.0273V28.916V28.0547V27.1203V25.1477H14.6388H16.2538H16.8997H18.9454H19.3741C20.3854 25.1477 21.2064 25.9667 21.2064 26.978V28.0547H18.9454H16.8997H16.2538ZM17.1151 31.6077V28.916H21.2064V31.6077H17.1151ZM21.2064 32.469V35.1606H17.1151V32.469H21.2064ZM17.1151 38.929V36.022H21.2064V37.0986C21.2064 38.11 20.3854 38.929 19.3741 38.929H17.1151ZM29.5312 45.6081H19.6875V43.6393H29.5312V45.6081ZM29.5774 21.7677L29.3659 21.1505H28.0893L27.8701 21.7677H27.1395L28.4468 18.2763H28.9967L30.3119 21.7677H29.5774ZM31.9614 20.3758H31.4577V21.7679H30.7559V18.2764H32.1652C32.3459 18.2764 32.5094 18.3072 32.6536 18.3629C32.7978 18.4206 32.9208 18.4975 33.0227 18.5936C33.1227 18.6897 33.1996 18.8032 33.2515 18.932C33.3053 19.0608 33.3303 19.1992 33.3303 19.3453C33.3303 19.4703 33.313 19.5818 33.2764 19.6799C33.2419 19.7779 33.1937 19.8644 33.1342 19.9413C33.0727 20.0183 33.0034 20.0836 32.9246 20.1375C32.8459 20.1914 32.7612 20.2336 32.6728 20.2625L33.4764 21.7679H32.6632L31.9614 20.3758ZM43.3125 45.6081H33.4688V43.6393H43.3125V45.6081ZM57.0938 45.6081H47.25V43.6393H57.0938V45.6081ZM57.0938 39.7018H37.4062V37.7331H57.0938V39.7018Z" fill="#F08014"/>
<path d="M35.8989 20.8122C35.9143 20.7641 35.9317 20.7025 35.9413 20.6334C35.9509 20.5623 35.9566 20.4776 35.9605 20.3777C35.9643 20.2796 35.9643 20.1604 35.9643 20.022C35.9643 19.8855 35.9643 19.7681 35.9605 19.6682C35.9566 19.5683 35.9509 19.4836 35.9413 19.4125C35.9317 19.3414 35.9143 19.2837 35.8989 19.2337C35.8797 19.1838 35.8528 19.1414 35.8182 19.1011C35.7028 18.9569 35.526 18.8857 35.2933 18.8857H34.7588V21.1601H35.2933C35.526 21.1601 35.7028 21.087 35.8182 20.9448C35.8528 20.9044 35.8797 20.8602 35.8989 20.8122Z" fill="#F08014"/>
</svg>
