<svg width="52" height="52" viewBox="0 0 52 52" fill="none" xmlns="http://www.w3.org/2000/svg">
<path d="M47.125 43.875H4.875C2.18725 43.875 0 41.6878 0 39V13C0 10.3122 2.18725 8.125 4.875 8.125H47.125C49.8128 8.125 52 10.3122 52 13V39C52 41.6878 49.8128 43.875 47.125 43.875ZM4.875 40.625H47.125C48.0204 40.625 48.75 39.897 48.75 39V13.5151L27.0579 32.1084C26.7524 32.37 26.377 32.5 26 32.5C25.623 32.5 25.2476 32.37 24.9421 32.1084L3.25 13.5151V39C3.25 39.897 3.97963 40.625 4.875 40.625ZM46.254 11.375H5.746L26 28.7349L46.254 11.375Z" fill="#686870"/>
</svg>
