<svg width="200" height="200" viewBox="0 0 200 200" fill="none" xmlns="http://www.w3.org/2000/svg">
<rect width="200" height="200" rx="100" fill="#F08014"/>
<path fill-rule="evenodd" clip-rule="evenodd" d="M99.5 91.8308C96.0012 91.8308 93.15 88.9796 93.15 85.4808C93.15 81.9819 96.0012 79.1308 99.5 79.1308C102.999 79.1308 105.85 81.9819 105.85 85.4808C105.85 88.9796 102.999 91.8308 99.5 91.8308ZM99.5 66.4308C88.9781 66.4308 80.45 74.9588 80.45 85.4808C80.45 96.0027 88.9781 104.531 99.5 104.531C110.022 104.531 118.55 96.0027 118.55 85.4808C118.55 74.9588 110.022 66.4308 99.5 66.4308ZM99.5 144.95C99.5 144.95 67.75 100.5 67.75 81.45C67.75 63.943 81.9931 49.7 99.5 49.7C117.007 49.7 131.25 63.943 131.25 81.45C131.25 100.5 99.5 144.95 99.5 144.95ZM99.5 37C74.9509 37 55.05 56.9009 55.05 81.45C55.05 105.999 99.5 164 99.5 164C99.5 164 143.95 105.999 143.95 81.45C143.95 56.9009 124.049 37 99.5 37Z" fill="white"/>
</svg>
