<svg width="200" height="200" viewBox="0 0 200 200" fill="none" xmlns="http://www.w3.org/2000/svg">
<rect width="200" height="200" rx="100" fill="#686870"/>
<g clip-path="url(#clip0_347_69)">
<path d="M71.5343 67.7985C70.6551 67.1682 69.1603 66.5624 67.0696 65.991V79.1986C69.9323 79.0619 71.9052 78.0165 72.9997 76.0576C73.5662 75.0515 73.8494 73.889 73.8494 72.5653C73.8494 70.4803 73.0824 68.8881 71.5343 67.7985Z" fill="black"/>
<path d="M59.9673 51.0348C59.0291 52.2897 58.5658 53.6044 58.5658 54.9764C58.5658 56.6325 59.1126 57.9268 60.2219 58.8649C61.3401 59.7981 62.8202 60.4571 64.6866 60.8238V49.0226C62.4829 49.1151 60.9103 49.7749 59.9673 51.0348Z" fill="black"/>
<path d="M65.8531 36C49.9096 36 37 48.9195 37 64.858C37 80.7966 49.9195 93.716 65.8531 93.716C81.7867 93.716 94.7062 80.7966 94.7062 64.858C94.7062 48.9195 81.7966 36 65.8531 36ZM74.0205 80.8359C72.4184 81.8714 70.1034 82.5599 67.0696 82.8922V87.7622H64.6858V82.8922C59.8256 82.5746 56.5135 80.8506 54.7747 77.7194C53.8218 76.024 53.3536 73.7433 53.3536 70.8659H57.784C57.9158 73.1613 58.2874 74.8321 58.8785 75.8873C59.9287 77.7775 61.8533 78.8376 64.6866 79.0717V65.3909C61.0625 64.7025 58.3758 63.5589 56.6469 61.947C54.918 60.34 54.0535 58.1126 54.0535 55.2695C54.0535 52.7244 54.9867 50.4339 56.8475 48.3923C58.718 46.3506 61.3319 45.3151 64.6874 45.2807V41.9399H67.0712V45.2275C70.412 45.4616 72.9571 46.4391 74.7302 48.168C76.5181 49.8969 77.4562 52.1784 77.534 55.0166H73.1478C73.0308 53.7469 72.6886 52.6524 72.1172 51.729C71.0571 50.0385 69.3773 49.1495 67.0712 49.0717V61.2978C70.9597 62.3825 73.5874 63.4033 74.9791 64.3554C77.2409 65.928 78.3641 68.2586 78.3641 71.3358C78.3772 75.7899 76.9217 78.9555 74.0205 80.8359Z" fill="black"/>
<path d="M65.8531 105.288C49.9047 105.288 37 118.212 37 134.141C37 150.08 49.9195 162.999 65.8531 162.999C81.7867 162.999 94.7062 150.08 94.7062 134.141C94.707 118.208 81.7966 105.288 65.8531 105.288ZM76.8193 152.947C75.5497 153.558 74.1965 153.866 72.7557 153.866C71.7054 153.866 69.9421 153.466 67.4609 152.654C64.9895 151.853 63.0403 151.453 61.5996 151.453C60.2758 151.453 59.0111 151.677 57.829 152.136C57.1258 152.419 56.2368 152.888 55.1275 153.552L52.5341 149.825C54.498 148.442 56.0951 146.909 57.3116 145.243C58.5183 143.572 59.1191 141.756 59.1191 139.797C59.1191 139.235 59.0119 138.585 58.7819 137.833C58.6353 137.354 58.4061 136.715 58.0688 135.889H52.2656V133.159H56.3833C56.3833 133.246 56.0902 132.7 55.5041 131.517C54.9131 130.335 54.5275 129.476 54.3318 128.934C54.1657 128.426 54.024 127.835 53.8873 127.171C53.7654 126.492 53.7064 125.769 53.7064 125.007C53.7064 122.277 54.8246 119.824 57.0472 117.671C59.2599 115.517 62.4444 114.432 66.5964 114.432C70.4996 114.432 73.445 115.502 75.4473 117.631C77.4448 119.77 78.4852 122.789 78.5442 126.688H73.6791C73.6791 124.045 73.0635 122.038 71.8331 120.67C70.597 119.297 68.7216 118.609 66.201 118.609C63.7591 118.609 61.8975 119.249 60.6426 120.538C59.3827 121.827 58.7475 123.386 58.7475 125.222C58.7475 126.131 58.948 127.068 59.3434 128.026C59.729 128.988 60.5648 130.708 61.8492 133.174H70.4562V135.909H63.0264C63.2024 136.711 63.3293 137.34 63.4022 137.8C63.4848 138.254 63.5143 138.723 63.5143 139.211C63.5143 140.959 62.992 142.693 61.9516 144.398C60.8914 146.108 59.2501 147.793 57.0087 149.479C58.2154 148.868 59.4024 148.375 60.5746 148.023C61.7469 147.666 62.8946 147.491 64.0088 147.491C65.2686 147.491 66.9443 147.794 69.0056 148.42C71.0865 149.04 72.4348 149.348 73.0889 149.348C73.9091 149.348 74.6566 149.187 75.3507 148.874C75.7609 148.678 76.4109 148.278 77.2655 147.667L79.434 151.218C78.4705 151.98 77.5962 152.561 76.8193 152.947Z" fill="black"/>
<path d="M135.146 36C119.203 36 106.293 48.9195 106.293 64.858C106.293 80.7966 119.212 93.716 135.146 93.716C151.08 93.716 163.999 80.7916 163.999 64.858C164 48.9195 151.08 36 135.146 36ZM146.532 80.1277C143.977 83.4252 140.524 85.0706 136.182 85.0706C132.44 85.0706 129.304 83.7223 126.745 81.0168C124.346 78.4717 122.793 74.9254 122.123 70.378H115.539L116.634 66.6704H121.758C121.718 65.9574 121.699 65.2248 121.699 64.4724C121.699 63.8274 121.718 63.1831 121.758 62.538H115.544L116.644 58.8256H122.177C122.778 55.6412 123.887 52.8808 125.499 50.5461C128.229 46.6044 131.976 44.6356 136.773 44.6356C140.856 44.6356 144.007 45.9151 146.264 48.4799C148.531 51.0397 149.776 53.9507 150.029 57.2088H145.765C145.291 54.7374 144.334 52.7735 142.884 51.3279C141.443 49.8822 139.425 49.1593 136.827 49.1593C133.642 49.1593 131.063 50.4929 129.119 53.1599C128.034 54.6253 127.268 56.5155 126.789 58.8313H141.364L140.265 62.5438H126.261C126.197 63.4328 126.178 64.3758 126.178 65.3672C126.178 65.8166 126.188 66.2562 126.198 66.6762H141.359L140.26 70.3837H126.588C127.008 72.6693 127.751 74.6479 128.816 76.3187C130.564 79.1028 133.197 80.5002 136.7 80.5002C139.924 80.5002 142.385 79.03 144.076 76.0846C144.974 74.5317 145.62 72.4941 146.059 69.9687H150.323C149.932 74.002 148.677 77.3919 146.532 80.1277Z" fill="black"/>
<path d="M135.146 105.288C119.203 105.288 106.293 118.212 106.293 134.141C106.293 150.085 119.212 162.999 135.146 162.999C151.08 162.999 163.999 150.08 163.999 134.141C164 118.208 151.08 105.288 135.146 105.288ZM149.18 126.936V130.722H142.058L138.452 136.847H148.26V140.632H137.778V153.864H132.463V140.632H122.276V136.847H131.795L128.19 130.722H120.951V126.936H125.968L118.602 114.403H124.849L135.122 133.379L145.433 114.403H151.695L144.295 126.936H149.18Z" fill="black"/>
</g>
<defs>
<clipPath id="clip0_347_69">
<rect width="127" height="127" fill="white" transform="translate(37 36)"/>
</clipPath>
</defs>
</svg>
