<svg width="52" height="52" viewBox="0 0 52 52" fill="none" xmlns="http://www.w3.org/2000/svg">
<g clip-path="url(#clip0_297_57)">
<path d="M32.5001 52.0001H42.2501C43.1471 52.0001 43.8751 51.2721 43.8751 50.3751V27.625H50.3751C51.0324 27.625 51.6247 27.2294 51.8766 26.6216C52.1284 26.0147 51.9895 25.3159 51.5239 24.8512L27.1489 0.476174C26.5144 -0.158389 25.4858 -0.158389 24.8512 0.476174L0.476194 24.8512C0.0114435 25.3159 -0.127494 26.0147 0.123569 26.6216C0.375444 27.2294 0.967756 27.625 1.62507 27.625H8.12507V50.3751C8.12507 51.2721 8.85307 52.0001 9.75007 52.0001H19.5001C20.3971 52.0001 21.1251 51.2721 21.1251 50.3751V39.0001H30.8751V50.3751C30.8751 51.2721 31.6031 52.0001 32.5001 52.0001ZM19.5001 35.75C18.6031 35.75 17.8751 36.478 17.8751 37.375V48.7501H11.3751V26.0001C11.3751 25.1031 10.6471 24.3751 9.75007 24.3751H5.54782L26.0001 3.92361L46.4523 24.3751H42.2501C41.3531 24.3751 40.6251 25.1031 40.6251 26.0001V48.7501H34.1251V37.375C34.1251 36.478 33.3971 35.75 32.5001 35.75H19.5001Z" fill="#F08014"/>
</g>
<defs>
<clipPath id="clip0_297_57">
<rect width="52" height="52" fill="white"/>
</clipPath>
</defs>
</svg>
