<svg width="200" height="200" viewBox="0 0 200 200" fill="none" xmlns="http://www.w3.org/2000/svg">
<rect width="200" height="200" rx="100" fill="#F08014"/>
<g clip-path="url(#clip0_347_81)">
<path d="M153.417 54.7854V73.0417C153.417 74.4451 152.859 75.7911 151.867 76.7835C150.874 77.7758 149.528 78.3334 148.125 78.3334H129.604C128.837 78.342 128.077 78.1839 127.378 77.8698C126.678 77.5557 126.054 77.0932 125.551 76.5143C125.048 75.9354 124.676 75.2541 124.462 74.5174C124.249 73.7807 124.197 73.0063 124.313 72.2479C124.561 70.9643 125.255 69.8095 126.271 68.9868C127.288 68.1641 128.561 67.7261 129.869 67.75H135.954C129.791 60.8861 121.766 55.96 112.856 53.5702C103.946 51.1805 94.5337 51.4299 85.7626 54.2882C76.9916 57.1465 69.2394 62.4906 63.4481 69.6713C57.6568 76.852 54.0755 85.5601 53.1396 94.7375C53.008 96.0473 52.3929 97.2611 51.4144 98.1417C50.4359 99.0223 49.1643 99.5066 47.8479 99.5C47.1062 99.5037 46.3719 99.3515 45.6928 99.0531C45.0136 98.7547 44.4049 98.3169 43.9059 97.768C43.4069 97.2191 43.0289 96.5715 42.7964 95.8671C42.5639 95.1627 42.4821 94.4172 42.5563 93.6792C43.6676 82.5696 47.9506 72.0141 54.8945 63.2712C61.8384 54.5283 71.1503 47.9669 81.7198 44.3693C92.2894 40.7718 103.671 40.2899 114.506 42.9812C125.342 45.6724 135.175 51.4232 142.833 59.5479V54.5209C142.825 53.7538 142.983 52.994 143.297 52.2942C143.611 51.5944 144.074 50.9712 144.652 50.4678C145.231 49.9645 145.913 49.593 146.649 49.3791C147.386 49.1652 148.16 49.1141 148.919 49.2292C150.202 49.478 151.357 50.1716 152.18 51.1879C153.003 52.2042 153.441 53.4781 153.417 54.7854Z" fill="white"/>
<path d="M47.5833 144.215V125.958C47.5833 124.555 48.1408 123.209 49.1332 122.217C50.1256 121.224 51.4716 120.667 52.875 120.667H71.3958C72.1629 120.658 72.9226 120.816 73.6225 121.13C74.3223 121.444 74.9455 121.907 75.4489 122.486C75.9522 123.065 76.3237 123.746 76.5376 124.483C76.7514 125.219 76.8026 125.994 76.6875 126.752C76.4386 128.036 75.7451 129.191 74.7288 130.013C73.7125 130.836 72.4386 131.274 71.1312 131.25H65.0458C71.2093 138.114 79.2336 143.04 88.1437 145.43C97.0539 147.82 106.466 147.57 115.237 144.712C124.008 141.854 131.761 136.509 137.552 129.329C143.343 122.148 146.924 113.44 147.86 104.263C147.992 102.953 148.607 101.739 149.586 100.858C150.564 99.9777 151.836 99.4934 153.152 99.5C153.894 99.4963 154.628 99.6486 155.307 99.947C155.986 100.245 156.595 100.683 157.094 101.232C157.593 101.781 157.971 102.429 158.204 103.133C158.436 103.837 158.518 104.583 158.444 105.321C157.332 116.43 153.049 126.986 146.105 135.729C139.162 144.472 129.85 151.033 119.28 154.631C108.711 158.228 97.3295 158.71 86.4937 156.019C75.6579 153.328 65.8247 147.577 58.1667 139.452V144.479C58.1753 145.246 58.0172 146.006 57.7031 146.706C57.389 147.406 56.9265 148.029 56.3476 148.532C55.7688 149.036 55.0874 149.407 54.3507 149.621C53.614 149.835 52.8397 149.886 52.0812 149.771C50.7976 149.522 49.6428 148.828 48.8201 147.812C47.9974 146.796 47.5594 145.522 47.5833 144.215Z" fill="white"/>
<path d="M102.352 94.2084C93.0917 92.3563 93.0917 90.7688 93.0917 89.4459C93.0917 88.1229 93.6209 87.8584 94.4146 87.0646C95.8743 86.2799 97.5225 85.9136 99.1771 86.0063C102.251 85.9796 105.273 86.8037 107.908 88.3875C108.444 88.8246 109.068 89.1399 109.738 89.3113C110.408 89.4828 111.107 89.5064 111.787 89.3806C112.466 89.2547 113.111 88.9823 113.675 88.5824C114.238 88.1824 114.709 87.6645 115.052 87.0646C115.506 86.5236 115.84 85.8931 116.034 85.2142C116.227 84.5352 116.276 83.8232 116.176 83.1243C116.076 82.4254 115.83 81.7554 115.454 81.1578C115.078 80.5603 114.581 80.0487 113.994 79.6563C111.478 78.1033 108.697 77.027 105.792 76.4813V70.3959C105.792 68.9924 105.234 67.6465 104.242 66.6541C103.249 65.6617 101.903 65.1042 100.5 65.1042C99.0966 65.1042 97.7507 65.6617 96.7583 66.6541C95.7659 67.6465 95.2084 68.9924 95.2084 70.3959V76.2167C87.2709 77.5396 81.9792 82.8313 81.9792 89.975C81.9792 97.1188 90.7105 102.94 99.1771 104.527C107.644 106.115 107.908 107.967 107.908 109.29C107.908 110.613 104.998 112.994 101.294 112.994C97.3981 113.071 93.5856 111.862 90.4459 109.554C89.8579 109.163 89.1977 108.894 88.5041 108.762C87.8105 108.63 87.0975 108.638 86.4071 108.786C85.7167 108.934 85.0629 109.219 84.4843 109.623C83.9056 110.028 83.4137 110.544 83.0375 111.142C82.6203 111.638 82.3088 112.214 82.1222 112.835C81.9355 113.456 81.8775 114.108 81.9518 114.752C82.0261 115.396 82.2311 116.018 82.5543 116.581C82.8775 117.143 83.312 117.633 83.8313 118.021C87.2359 120.41 91.117 122.035 95.2084 122.783V128.604C95.2084 130.008 95.7659 131.354 96.7583 132.346C97.7507 133.338 99.0966 133.896 100.5 133.896C101.903 133.896 103.249 133.338 104.242 132.346C105.234 131.354 105.792 130.008 105.792 128.604V122.783C108.694 122.355 111.432 121.169 113.729 119.344C115.388 118.126 116.733 116.531 117.653 114.691C118.573 112.851 119.042 110.818 119.021 108.76C119.021 98.9709 110.025 95.7959 102.352 94.2084Z" fill="white"/>
</g>
<defs>
<clipPath id="clip0_347_81">
<rect width="127" height="127" fill="white" transform="translate(37 36)"/>
</clipPath>
</defs>
</svg>
