<svg width="95" height="95" viewBox="0 0 95 95" fill="none" xmlns="http://www.w3.org/2000/svg">
<rect width="95" height="95" rx="47.5" fill="#F08014"/>
<g clip-path="url(#clip0_342_9)">
<path fill-rule="evenodd" clip-rule="evenodd" d="M11.2177 41.0642C11.1724 40.7449 11.0569 40.4568 10.8707 40.2005C10.5994 39.8546 10.1796 39.682 9.60927 39.682C8.79674 39.682 8.24051 40.0565 7.94163 40.8053C7.78351 41.2013 7.70475 41.7293 7.70475 42.3867C7.70475 43.0131 7.78351 43.5178 7.94163 43.8983C8.22924 44.61 8.77142 44.9664 9.56669 44.9664C10.1315 44.9664 10.532 44.8249 10.7688 44.5419C11.0061 44.2598 11.1502 43.8931 11.2009 43.4427H13.658C13.6019 44.1235 13.337 44.7671 12.8636 45.3744C12.1081 46.3536 10.9898 46.8428 9.50788 46.8428C8.02584 46.8428 6.93516 46.4339 6.23633 45.6177C5.53744 44.8016 5.18823 43.7421 5.18823 42.4411C5.18823 40.9736 5.57413 39.8313 6.3464 39.0151C7.11817 38.1981 8.18344 37.79 9.54136 37.79C10.6968 37.79 11.6421 38.0307 12.3776 38.5122C13.1127 38.9936 13.548 39.8442 13.6835 41.0642H11.2177Z" fill="white"/>
<path fill-rule="evenodd" clip-rule="evenodd" d="M21.5134 38.0411C21.9757 38.2249 22.3548 38.5053 22.6523 38.8823C22.9047 39.2015 23.0582 39.5311 23.1146 39.8684C23.1709 40.2066 23.1987 40.7579 23.1987 41.5223V46.5521H20.7415V41.3411C20.7415 40.8796 20.6574 40.5077 20.49 40.2247C20.2723 39.8261 19.8586 39.6269 19.2497 39.6269C18.6182 39.6269 18.1386 39.8253 17.8116 40.2204C17.4846 40.6164 17.3216 41.1807 17.3216 41.914V46.5521H14.9147V35.0181H17.3216V39.1014C17.6694 38.6036 18.0709 38.2568 18.528 38.061C18.9851 37.8643 19.4656 37.7659 19.9696 37.7659C20.5359 37.7659 21.0503 37.8582 21.5134 38.0411Z" fill="white"/>
<path fill-rule="evenodd" clip-rule="evenodd" d="M30.147 42.3911C29.9926 42.4799 29.8374 42.5515 29.6804 42.6067C29.5234 42.662 29.3083 42.7129 29.0342 42.7595L28.486 42.8544C27.9726 42.938 27.6039 43.0407 27.3802 43.1606C27.0011 43.3642 26.8112 43.6809 26.8112 44.1105C26.8112 44.4927 26.9265 44.7688 27.1581 44.9387C27.3906 45.1087 27.6716 45.1941 28.0029 45.1941C28.5285 45.1941 29.0134 45.0526 29.4566 44.7696C29.8998 44.4875 30.1297 43.9716 30.147 43.2227V42.3911ZM28.6751 41.3463C29.1235 41.2945 29.4436 41.2289 29.6361 41.1504C29.9822 41.0141 30.1557 40.8027 30.1557 40.5146C30.1557 40.1635 30.023 39.921 29.7576 39.7882C29.4922 39.6544 29.1027 39.588 28.5892 39.588C28.0125 39.588 27.6048 39.7191 27.3646 39.9805C27.1937 40.1738 27.0792 40.4352 27.0228 40.7656H24.7001C24.7512 40.0168 24.9767 39.4025 25.3792 38.9202C26.0176 38.1662 27.1148 37.79 28.669 37.79C29.6812 37.79 30.5807 37.9755 31.3665 38.3474C32.1523 38.7192 32.5452 39.4206 32.5452 40.4516V44.3771C32.5452 44.6497 32.5513 44.9793 32.5626 45.3667C32.579 45.66 32.6267 45.8584 32.7057 45.9637C32.7846 46.0681 32.9026 46.1544 33.0604 46.2225V46.5521H30.4428C30.369 46.3795 30.3187 46.2173 30.2901 46.0655C30.2624 45.9136 30.2398 45.7411 30.2233 45.547C29.8885 45.8826 29.5034 46.1673 29.068 46.4028C28.5467 46.6806 27.9578 46.8187 27.3012 46.8187C26.4625 46.8187 25.7704 46.5978 25.2239 46.1561C24.6775 45.7135 24.4043 45.0863 24.4043 44.2753C24.4043 43.2227 24.844 42.4609 25.7227 41.9907C26.2058 41.7336 26.9144 41.5507 27.8503 41.4412L28.6751 41.3463Z" fill="white"/>
<path fill-rule="evenodd" clip-rule="evenodd" d="M41.8649 38.4845C42.4668 38.9478 42.7687 39.7165 42.7687 40.7889V46.5521H40.3028V41.3463C40.3028 40.8968 40.2386 40.5508 40.1102 40.3101C39.8743 39.871 39.4285 39.651 38.7685 39.651C37.9584 39.651 37.4024 39.9728 37.0997 40.6164C36.9436 40.9572 36.8655 41.3911 36.8655 41.92V46.5521H34.4586V38.01H36.7892V39.2576C37.098 38.8184 37.3894 38.5018 37.6643 38.3085C38.157 37.9626 38.7823 37.79 39.5395 37.79C40.4867 37.79 41.2612 38.0213 41.8649 38.4845Z" fill="white"/>
<path fill-rule="evenodd" clip-rule="evenodd" d="M49.7204 44.1216C50.1072 43.7273 50.3007 43.0975 50.3007 42.2339C50.3007 41.4229 50.1168 40.8044 49.7499 40.3807C49.3821 39.9563 48.8904 39.7449 48.2745 39.7449C47.4332 39.7449 46.853 40.1133 46.5329 40.8518C46.3655 41.2444 46.2805 41.7284 46.2805 42.3047C46.2805 42.8016 46.3707 43.2442 46.5502 43.6316C46.8755 44.3537 47.4584 44.7152 48.2988 44.7152C48.86 44.7152 49.3336 44.5176 49.7204 44.1216ZM48.9008 37.9858C49.4854 38.2109 49.9572 38.6242 50.3171 39.2264V37.9935H52.665V46.1128C52.665 47.2171 52.4656 48.0488 52.0657 48.6087C51.3788 49.5724 50.0613 50.0538 48.1132 50.0538C46.9371 50.0538 45.9769 49.839 45.2345 49.4102C44.4912 48.9806 44.0792 48.3396 44.0011 47.4863H46.6188C46.6864 47.7477 46.7966 47.9367 46.9484 48.0523C47.2068 48.2559 47.6431 48.3586 48.2572 48.3586C49.1237 48.3586 49.7039 48.0885 49.9971 47.5493C50.1879 47.2042 50.2842 46.6227 50.2842 45.8066V45.2561C50.0526 45.6228 49.8054 45.898 49.5409 46.0809C49.0621 46.4217 48.4402 46.5917 47.6743 46.5917C46.4921 46.5917 45.5476 46.2051 44.8416 45.433C44.1347 44.6608 43.7817 43.6152 43.7817 42.2969C43.7817 41.0244 44.1217 39.9554 44.8017 39.0892C45.4825 38.223 46.447 37.7891 47.6943 37.7891C48.1557 37.7891 48.5582 37.8555 48.9008 37.9858Z" fill="white"/>
<path fill-rule="evenodd" clip-rule="evenodd" d="M56.4762 40.1003C56.1362 40.4264 55.9219 40.8673 55.8343 41.4255H59.9811C59.9369 40.8311 59.7235 40.3807 59.3402 40.0727C58.9559 39.7647 58.4806 39.6111 57.9125 39.6111C57.2949 39.6111 56.8153 39.7742 56.4762 40.1003ZM60.0765 38.1669C60.7184 38.4344 61.2483 38.8562 61.6672 39.4334C62.0437 39.9416 62.2883 40.5317 62.4002 41.2029C62.4652 41.5955 62.4912 42.1623 62.48 42.9008H55.7754C55.8127 43.7592 56.1336 44.3614 56.7381 44.7074C57.1059 44.9213 57.5482 45.0283 58.0652 45.0283C58.6133 45.0283 59.0583 44.8981 59.4017 44.6366C59.5882 44.4951 59.753 44.2984 59.897 44.0474H62.3542C62.2891 44.5555 61.9916 45.0706 61.4617 45.5943C60.6377 46.4268 59.4833 46.8427 57.9984 46.8427C56.7737 46.8427 55.693 46.4915 54.7562 45.7901C53.8204 45.0879 53.352 43.9456 53.352 42.3633C53.352 40.8811 53.7744 39.744 54.6201 38.9529C55.4657 38.1617 56.562 37.7666 57.9116 37.7666C58.7122 37.7666 59.4338 37.8995 60.0765 38.1669Z" fill="white"/>
<mask id="mask0_342_9" style="mask-type:luminance" maskUnits="userSpaceOnUse" x="5" y="25" width="85" height="44">
<path d="M5.18823 68.3087H89.5325V25.2222H5.18823V68.3087Z" fill="white"/>
</mask>
<g mask="url(#mask0_342_9)">
<path fill-rule="evenodd" clip-rule="evenodd" d="M34.4586 36.866H36.8993V28.3078H34.4586V36.866ZM34.4586 27.2869H36.8993V25.2222L34.4586 25.2222V27.2869Z" fill="white"/>
</g>
<mask id="mask1_342_9" style="mask-type:luminance" maskUnits="userSpaceOnUse" x="5" y="25" width="85" height="44">
<path d="M5.18823 68.3087H89.5325V25.2222H5.18823V68.3087Z" fill="white"/>
</mask>
<g mask="url(#mask1_342_9)">
<path fill-rule="evenodd" clip-rule="evenodd" d="M45.7931 28.7989C46.395 29.2622 46.6968 30.0303 46.6968 31.1033V36.8661H44.231V31.6604C44.231 31.2107 44.1668 30.865 44.0375 30.6241C43.8025 30.1849 43.3567 29.9649 42.6966 29.9649C41.8857 29.9649 41.3306 30.2867 41.0278 30.9306C40.8717 31.2709 40.7937 31.7051 40.7937 32.2341V36.8661H38.3868V28.3238H40.7173V29.5721C41.0261 29.1324 41.3175 28.8161 41.5925 28.6224C42.0851 28.2766 42.7105 28.104 43.4677 28.104C44.4148 28.104 45.1894 28.3357 45.7931 28.7989Z" fill="white"/>
</g>
<mask id="mask2_342_9" style="mask-type:luminance" maskUnits="userSpaceOnUse" x="5" y="25" width="85" height="44">
<path d="M5.18823 68.3087H89.5325V25.2222H5.18823V68.3087Z" fill="white"/>
</mask>
<g mask="url(#mask2_342_9)">
<path fill-rule="evenodd" clip-rule="evenodd" d="M47.5052 29.9805V28.3865H48.7889V25.9995H51.1707V28.3865H52.6651V29.9805H51.1707V34.5031C51.1707 34.8533 51.2184 35.0725 51.3138 35.1588C51.4092 35.245 51.7023 35.2882 52.1924 35.2882C52.2652 35.2882 52.3424 35.2873 52.424 35.2839C52.5055 35.2813 52.5862 35.2778 52.6651 35.2726V36.9455L51.5254 36.9843C50.3874 37.0206 49.6103 36.8377 49.194 36.4348C48.9242 36.1785 48.7889 35.7825 48.7889 35.2485V29.9805H47.5052Z" fill="white"/>
</g>
<mask id="mask3_342_9" style="mask-type:luminance" maskUnits="userSpaceOnUse" x="5" y="25" width="85" height="44">
<path d="M5.18823 68.3087H89.5325V25.2222H5.18823V68.3087Z" fill="white"/>
</mask>
<g mask="url(#mask3_342_9)">
<path fill-rule="evenodd" clip-rule="evenodd" d="M56.4753 30.4145C56.1353 30.7404 55.9219 31.1818 55.8343 31.7394H59.9803C59.9369 31.1451 59.7227 30.6945 59.3393 30.3871C58.9559 30.0793 58.4797 29.9255 57.9125 29.9255C57.2941 29.9255 56.8153 30.0885 56.4753 30.4145ZM60.0757 28.4815C60.7175 28.7489 61.2483 29.1709 61.6664 29.7474C62.0437 30.2562 62.2883 30.8458 62.4002 31.517C62.4643 31.9099 62.4912 32.4763 62.4791 33.2155H55.7745C55.8127 34.0734 56.1327 34.6756 56.7381 35.0215C57.1059 35.2363 57.5473 35.3433 58.0652 35.3433C58.6125 35.3433 59.0583 35.2122 59.4009 34.9508C59.5873 34.8093 59.753 34.6126 59.8961 34.3615H62.3533C62.2883 34.8697 61.9916 35.3847 61.4617 35.9084C60.6368 36.741 59.4824 37.1568 57.9984 37.1568C56.7737 37.1568 55.6921 36.8057 54.7562 36.1043C53.8204 35.402 53.352 34.2597 53.352 32.6776C53.352 31.1952 53.7744 30.0582 54.6192 29.2669C55.4648 28.476 56.562 28.0806 57.9116 28.0806C58.7113 28.0806 59.4338 28.2141 60.0757 28.4815Z" fill="white"/>
</g>
<mask id="mask4_342_9" style="mask-type:luminance" maskUnits="userSpaceOnUse" x="5" y="25" width="85" height="44">
<path d="M5.18823 68.3087H89.5325V25.2222H5.18823V68.3087Z" fill="white"/>
</mask>
<g mask="url(#mask4_342_9)">
<path fill-rule="evenodd" clip-rule="evenodd" d="M68.3762 28.1077C68.4074 28.1102 68.4768 28.1145 68.5835 28.1196V30.4121C68.4317 30.3966 68.2964 30.3861 68.1784 30.3806C68.0605 30.3756 67.9642 30.3726 67.8914 30.3726C66.9234 30.3726 66.2729 30.6661 65.9398 31.2523C65.7542 31.582 65.6614 32.0899 65.6614 32.7751V36.8659H63.238V28.3078H65.5356V29.7998C65.9069 29.2292 66.2304 28.8393 66.5062 28.63C66.9564 28.2792 67.5418 28.1035 68.2626 28.1035C68.3077 28.1035 68.3458 28.1052 68.3762 28.1077Z" fill="white"/>
</g>
<mask id="mask5_342_9" style="mask-type:luminance" maskUnits="userSpaceOnUse" x="5" y="25" width="85" height="44">
<path d="M5.18823 68.3087H89.5325V25.2222H5.18823V68.3087Z" fill="white"/>
</mask>
<g mask="url(#mask5_342_9)">
<path fill-rule="evenodd" clip-rule="evenodd" d="M79.1148 38.3267H71.6669L62.5077 46.8428L71.6669 55.359H79.1148L69.9556 46.8428L79.1148 38.3267Z" fill="white"/>
</g>
<mask id="mask6_342_9" style="mask-type:luminance" maskUnits="userSpaceOnUse" x="5" y="25" width="85" height="44">
<path d="M5.18823 68.3087H89.5325V25.2222H5.18823V68.3087Z" fill="white"/>
</mask>
<g mask="url(#mask6_342_9)">
<path fill-rule="evenodd" clip-rule="evenodd" d="M89.5325 38.3267H82.0837L72.9246 46.8428L82.0837 55.359H89.5325L80.3725 46.8428L89.5325 38.3267Z" fill="white"/>
</g>
<mask id="mask7_342_9" style="mask-type:luminance" maskUnits="userSpaceOnUse" x="5" y="25" width="85" height="44">
<path d="M5.18823 68.3087H89.5325V25.2222H5.18823V68.3087Z" fill="white"/>
</mask>
<g mask="url(#mask7_342_9)">
<path fill-rule="evenodd" clip-rule="evenodd" d="M56.8856 68.3087H64.3335L73.4927 59.7925L64.3335 51.2764H56.8856L66.0447 59.7925L56.8856 68.3087Z" fill="white"/>
</g>
<mask id="mask8_342_9" style="mask-type:luminance" maskUnits="userSpaceOnUse" x="5" y="25" width="85" height="44">
<path d="M5.18823 68.3087H89.5325V25.2222H5.18823V68.3087Z" fill="white"/>
</mask>
<g mask="url(#mask8_342_9)">
<path fill-rule="evenodd" clip-rule="evenodd" d="M46.4679 68.3087H53.9167L63.0759 59.7925L53.9167 51.2764H46.4679L55.6271 59.7925L46.4679 68.3087Z" fill="white"/>
</g>
</g>
<defs>
<clipPath id="clip0_342_9">
<rect width="85" height="44" fill="white" transform="translate(5 25)"/>
</clipPath>
</defs>
</svg>
