<svg width="55" height="55" viewBox="0 0 55 55" fill="none" xmlns="http://www.w3.org/2000/svg">
<path d="M49.8438 46.4062H5.15625C2.31344 46.4062 0 44.0928 0 41.25V13.75C0 10.9072 2.31344 8.59375 5.15625 8.59375H49.8438C52.6866 8.59375 55 10.9072 55 13.75V41.25C55 44.0928 52.6866 46.4062 49.8438 46.4062ZM5.15625 42.9688H49.8438C50.7908 42.9688 51.5625 42.1987 51.5625 41.25V14.2948L28.6189 33.9608C28.2958 34.2375 27.8987 34.375 27.5 34.375C27.1013 34.375 26.7042 34.2375 26.3811 33.9608L3.4375 14.2948V41.25C3.4375 42.1987 4.20922 42.9688 5.15625 42.9688ZM48.9225 12.0312H6.0775L27.5 30.3927L48.9225 12.0312Z" fill="#F08014"/>
</svg>
