<svg width="161" height="84" viewBox="0 0 161 84" fill="none" xmlns="http://www.w3.org/2000/svg">
<path fill-rule="evenodd" clip-rule="evenodd" d="M11.7769 30.6683C11.6912 30.0588 11.4723 29.5087 11.1198 29.0195C10.6059 28.3591 9.8106 28.0297 8.73042 28.0297C7.19139 28.0297 6.13782 28.7445 5.5717 30.1741C5.2722 30.9301 5.12303 31.9381 5.12303 33.1932C5.12303 34.389 5.2722 35.3525 5.5717 36.0788C6.11647 37.4377 7.14342 38.1179 8.64975 38.1179C9.71958 38.1179 10.4781 37.8478 10.9268 37.3075C11.3762 36.769 11.6491 36.069 11.7452 35.2092H16.3993C16.293 36.5087 15.7911 37.7374 14.8946 38.897C13.4635 40.7664 11.3454 41.7003 8.53837 41.7003C5.73122 41.7003 3.66532 40.9195 2.34167 39.3614C1.01789 37.8033 0.356445 35.7807 0.356445 33.297C0.356445 30.4953 1.08739 28.3146 2.55015 26.7565C4.01197 25.1967 6.02972 24.4177 8.60178 24.4177C10.7902 24.4177 12.5808 24.8772 13.9739 25.7963C15.3664 26.7153 16.1908 28.3393 16.4474 30.6683H11.7769Z" fill="white"/>
<path fill-rule="evenodd" clip-rule="evenodd" d="M31.2783 24.897C32.1539 25.2478 32.8718 25.7831 33.4353 26.5028C33.9134 27.1123 34.2042 27.7414 34.311 28.3854C34.4178 29.0311 34.4703 30.0836 34.4703 31.5428V41.1452H29.8161V31.197C29.8161 30.3158 29.6568 29.6059 29.3397 29.0657C28.9273 28.3047 28.1437 27.9243 26.9904 27.9243C25.7944 27.9243 24.8859 28.3031 24.2666 29.0574C23.6472 29.8134 23.3383 30.8906 23.3383 32.2906V41.1452H18.7794V19.1257H23.3383V26.9212C23.9971 25.9708 24.7578 25.3087 25.6236 24.9348C26.4893 24.5593 27.3995 24.3716 28.354 24.3716C29.4268 24.3716 30.401 24.5478 31.2783 24.897Z" fill="white"/>
<path fill-rule="evenodd" clip-rule="evenodd" d="M47.6313 33.2014C47.3388 33.3711 47.0448 33.5078 46.7474 33.6132C46.45 33.7186 46.0426 33.8158 45.5235 33.9047L44.4852 34.0859C43.5126 34.2457 42.8144 34.4417 42.3905 34.6706C41.6726 35.0593 41.3128 35.6638 41.3128 36.484C41.3128 37.2137 41.5313 37.7407 41.97 38.0652C42.4103 38.3897 42.9425 38.5527 43.5701 38.5527C44.5657 38.5527 45.484 38.2826 46.3235 37.7424C47.163 37.2038 47.5984 36.2188 47.6313 34.7892V33.2014ZM44.8433 31.2068C45.6927 31.108 46.2989 30.9828 46.6636 30.833C47.3191 30.5727 47.6477 30.1692 47.6477 29.6191C47.6477 28.9487 47.3963 28.4859 46.8936 28.2323C46.3909 27.977 45.6533 27.8501 44.6807 27.8501C43.5882 27.8501 42.816 28.1005 42.361 28.5995C42.0373 28.9685 41.8205 29.4675 41.7137 30.0984H37.3141C37.411 28.6687 37.8382 27.496 38.6005 26.5753C39.8096 25.1358 41.8878 24.4177 44.8318 24.4177C46.749 24.4177 48.4527 24.7718 49.9411 25.4817C51.4295 26.1915 52.1738 27.5306 52.1738 29.4988V36.993C52.1738 37.5134 52.1853 38.1426 52.2066 38.8821C52.2378 39.4421 52.3282 39.821 52.4777 40.0219C52.6272 40.2212 52.8506 40.3859 53.1496 40.516V41.1452H48.1915C48.0518 40.8158 47.9565 40.5061 47.9023 40.2163C47.8498 39.9264 47.807 39.597 47.7758 39.2264C47.1417 39.8671 46.4123 40.4106 45.5875 40.8603C44.6002 41.3906 43.4847 41.6541 42.241 41.6541C40.6524 41.6541 39.3414 41.2325 38.3064 40.3892C37.2714 39.5443 36.7539 38.3468 36.7539 36.7986C36.7539 34.7892 37.5868 33.3348 39.251 32.4372C40.1661 31.9464 41.5083 31.5972 43.281 31.388L44.8433 31.2068Z" fill="white"/>
<path fill-rule="evenodd" clip-rule="evenodd" d="M69.8263 25.7435C70.9665 26.628 71.5382 28.0955 71.5382 30.1428V41.1452H66.8675V31.2068C66.8675 30.3487 66.746 29.6883 66.5028 29.2287C66.056 28.3904 65.2115 27.9704 63.9613 27.9704C62.4269 27.9704 61.3738 28.5847 60.8005 29.8134C60.5048 30.464 60.3569 31.2925 60.3569 32.3021V41.1452H55.798V24.8377H60.2123V27.2193C60.7972 26.381 61.3492 25.7765 61.87 25.4075C62.8031 24.7471 63.9876 24.4177 65.4218 24.4177C67.2158 24.4177 68.6829 24.8591 69.8263 25.7435Z" fill="white"/>
<path fill-rule="evenodd" clip-rule="evenodd" d="M84.7057 36.5054C85.4384 35.7527 85.8047 34.5504 85.8047 32.9017C85.8047 31.3534 85.4565 30.1725 84.7615 29.3638C84.065 28.5534 83.1335 28.1499 81.967 28.1499C80.3735 28.1499 79.2744 28.8532 78.6682 30.2631C78.3511 31.0125 78.1901 31.9365 78.1901 33.0367C78.1901 33.9854 78.361 34.8304 78.701 35.5699C79.3171 36.9485 80.4211 37.6386 82.013 37.6386C83.076 37.6386 83.973 37.2614 84.7057 36.5054ZM83.1532 24.7915C84.2605 25.2214 85.1542 26.0104 85.836 27.16V24.8064H90.2832V40.3068C90.2832 42.4151 89.9053 44.0028 89.148 45.0718C87.8468 46.9115 85.3513 47.8306 81.6615 47.8306C79.4338 47.8306 77.6151 47.4205 76.2088 46.6019C74.8009 45.7817 74.0205 44.5579 73.8727 42.929H78.8308C78.959 43.428 79.1676 43.7887 79.4551 44.0094C79.9447 44.3981 80.771 44.5941 81.9342 44.5941C83.5754 44.5941 84.6745 44.0786 85.2297 43.0492C85.5912 42.3904 85.7735 41.2802 85.7735 39.7221V38.6713C85.3349 39.3713 84.8667 39.8967 84.3656 40.2459C83.4588 40.8965 82.2808 41.221 80.8302 41.221C78.591 41.221 76.8019 40.4831 75.4646 39.009C74.1257 37.5348 73.457 35.5386 73.457 33.0219C73.457 30.5925 74.101 28.5518 75.389 26.8981C76.6787 25.2445 78.5055 24.416 80.868 24.416C81.742 24.416 82.5042 24.5428 83.1532 24.7915Z" fill="white"/>
<path fill-rule="evenodd" clip-rule="evenodd" d="M97.5019 28.8285C96.8579 29.451 96.4521 30.2927 96.2862 31.3583H104.141C104.057 30.2235 103.653 29.3638 102.927 28.7758C102.199 28.1878 101.299 27.8946 100.222 27.8946C99.0528 27.8946 98.1443 28.2059 97.5019 28.8285ZM104.321 25.1374C105.537 25.648 106.541 26.4534 107.334 27.5553C108.047 28.5254 108.511 29.652 108.723 30.9334C108.846 31.6828 108.895 32.7649 108.874 34.1748H96.1745C96.2451 35.8136 96.853 36.9633 97.9981 37.6238C98.6946 38.0322 99.5325 38.2365 100.512 38.2365C101.55 38.2365 102.393 37.9878 103.043 37.4887C103.396 37.2186 103.709 36.8431 103.981 36.3638H108.636C108.512 37.3339 107.949 38.3172 106.945 39.3169C105.384 40.9063 103.198 41.7002 100.385 41.7002C98.0654 41.7002 96.0184 41.0299 94.2441 39.6908C92.4715 38.3501 91.5844 36.1694 91.5844 33.1487C91.5844 30.3191 92.3844 28.1482 93.9862 26.6379C95.588 25.1275 97.6646 24.3732 100.221 24.3732C101.737 24.3732 103.104 24.6268 104.321 25.1374Z" fill="white"/>
<mask id="mask0_297_6" style="mask-type:luminance" maskUnits="userSpaceOnUse" x="0" y="0" width="161" height="83">
<path d="M0.356445 82.6807H160.114V0.424561H0.356445V82.6807Z" fill="white"/>
</mask>
<g mask="url(#mask0_297_6)">
<path fill-rule="evenodd" clip-rule="evenodd" d="M55.798 22.6537H60.421V6.31533H55.798V22.6537ZM55.798 4.36637H60.421V0.424626L55.798 0.424561V4.36637Z" fill="white"/>
</g>
<mask id="mask1_297_6" style="mask-type:luminance" maskUnits="userSpaceOnUse" x="0" y="0" width="161" height="83">
<path d="M0.356445 82.6807H160.114V0.424561H0.356445V82.6807Z" fill="white"/>
</mask>
<g mask="url(#mask1_297_6)">
<path fill-rule="evenodd" clip-rule="evenodd" d="M77.2668 7.25251C78.4069 8.13698 78.9786 9.60335 78.9786 11.652V22.6537H74.308V12.7155C74.308 11.8569 74.1864 11.1969 73.9416 10.737C73.4964 9.89851 72.652 9.47867 71.4018 9.47867C69.8657 9.47867 68.8143 10.093 68.2409 11.3222C67.9452 11.9718 67.7973 12.8008 67.7973 13.8106V22.6537H63.2384V6.34564H67.6528V8.7286C68.2376 7.88926 68.7896 7.28545 69.3104 6.91568C70.2435 6.25554 71.428 5.92596 72.8623 5.92596C74.6563 5.92596 76.1233 6.3682 77.2668 7.25251Z" fill="white"/>
</g>
<mask id="mask2_297_6" style="mask-type:luminance" maskUnits="userSpaceOnUse" x="0" y="0" width="161" height="83">
<path d="M0.356445 82.6807H160.114V0.424561H0.356445V82.6807Z" fill="white"/>
</mask>
<g mask="url(#mask2_297_6)">
<path fill-rule="evenodd" clip-rule="evenodd" d="M80.5098 9.50835V6.46524H82.9412V1.90833H87.4525V6.46524H90.2831V9.50835H87.4525V18.1424C87.4525 18.8111 87.5428 19.2295 87.7235 19.3942C87.9043 19.5589 88.4596 19.6412 89.3878 19.6412C89.5258 19.6412 89.672 19.6396 89.8264 19.633C89.9808 19.628 90.1336 19.6215 90.2831 19.6116V22.8052L88.1244 22.8793C85.969 22.9485 84.497 22.5993 83.7084 21.8302C83.1975 21.341 82.9412 20.585 82.9412 19.5655V9.50835H80.5098Z" fill="white"/>
</g>
<mask id="mask3_297_6" style="mask-type:luminance" maskUnits="userSpaceOnUse" x="0" y="0" width="161" height="83">
<path d="M0.356445 82.6807H160.114V0.424561H0.356445V82.6807Z" fill="white"/>
</mask>
<g mask="url(#mask3_297_6)">
<path fill-rule="evenodd" clip-rule="evenodd" d="M97.5003 10.337C96.8563 10.9592 96.4521 11.8019 96.2862 12.8664H104.139C104.057 11.7319 103.651 10.8716 102.925 10.2848C102.199 9.69709 101.297 9.40358 100.222 9.40358C99.0511 9.40358 98.1443 9.71471 97.5003 10.337ZM104.32 6.64674C105.535 7.15732 106.541 7.9629 107.333 9.06347C108.047 10.0347 108.511 11.1603 108.723 12.4417C108.844 13.192 108.895 14.2733 108.872 15.6843H96.1729C96.2451 17.3221 96.8513 18.4718 97.9981 19.1323C98.6946 19.5424 99.5309 19.7466 100.512 19.7466C101.548 19.7466 102.393 19.4963 103.042 18.9972C103.395 18.7271 103.709 18.3516 103.98 17.8723H108.634C108.511 18.8424 107.949 19.8257 106.945 20.8254C105.383 22.4149 103.196 23.2087 100.385 23.2087C98.0654 23.2087 96.0168 22.5384 94.2441 21.1993C92.4715 19.8586 91.5844 17.6779 91.5844 14.6575C91.5844 11.8276 92.3844 9.6569 93.9846 8.14622C95.5864 6.63636 97.6646 5.88135 100.221 5.88135C101.736 5.88135 103.104 6.13631 104.32 6.64674Z" fill="white"/>
</g>
<mask id="mask4_297_6" style="mask-type:luminance" maskUnits="userSpaceOnUse" x="0" y="0" width="161" height="83">
<path d="M0.356445 82.6807H160.114V0.424561H0.356445V82.6807Z" fill="white"/>
</mask>
<g mask="url(#mask4_297_6)">
<path fill-rule="evenodd" clip-rule="evenodd" d="M120.042 5.93355C120.101 5.93832 120.232 5.94639 120.435 5.95611V10.3328C120.147 10.3032 119.891 10.2831 119.667 10.2726C119.444 10.263 119.261 10.2574 119.123 10.2574C117.29 10.2574 116.058 10.8177 115.427 11.9367C115.075 12.5663 114.9 13.5359 114.9 14.844V22.6537H110.31V6.3155H114.662V9.16392C115.365 8.07456 115.977 7.33009 116.5 6.93051C117.352 6.26082 118.461 5.92548 119.827 5.92548C119.912 5.92548 119.984 5.92877 120.042 5.93355Z" fill="white"/>
</g>
<mask id="mask5_297_6" style="mask-type:luminance" maskUnits="userSpaceOnUse" x="0" y="0" width="161" height="83">
<path d="M0.356445 82.6807H160.114V0.424561H0.356445V82.6807Z" fill="white"/>
</mask>
<g mask="url(#mask5_297_6)">
<path fill-rule="evenodd" clip-rule="evenodd" d="M140.382 25.4421H126.275L108.926 41.7003L126.275 57.9584H140.382L123.033 41.7003L140.382 25.4421Z" fill="white"/>
</g>
<mask id="mask6_297_6" style="mask-type:luminance" maskUnits="userSpaceOnUse" x="0" y="0" width="161" height="83">
<path d="M0.356445 82.6807H160.114V0.424561H0.356445V82.6807Z" fill="white"/>
</mask>
<g mask="url(#mask6_297_6)">
<path fill-rule="evenodd" clip-rule="evenodd" d="M160.114 25.4421H146.006L128.657 41.7003L146.006 57.9584H160.114L142.764 41.7003L160.114 25.4421Z" fill="white"/>
</g>
<mask id="mask7_297_6" style="mask-type:luminance" maskUnits="userSpaceOnUse" x="0" y="0" width="161" height="83">
<path d="M0.356445 82.6807H160.114V0.424561H0.356445V82.6807Z" fill="white"/>
</mask>
<g mask="url(#mask7_297_6)">
<path fill-rule="evenodd" clip-rule="evenodd" d="M98.2773 82.6807H112.385L129.733 66.4226L112.385 50.1645H98.2773L115.626 66.4226L98.2773 82.6807Z" fill="white"/>
</g>
<mask id="mask8_297_6" style="mask-type:luminance" maskUnits="userSpaceOnUse" x="0" y="0" width="161" height="83">
<path d="M0.356445 82.6807H160.114V0.424561H0.356445V82.6807Z" fill="white"/>
</mask>
<g mask="url(#mask8_297_6)">
<path fill-rule="evenodd" clip-rule="evenodd" d="M78.5449 82.6807H92.6538L110.002 66.4226L92.6538 50.1645H78.5449L95.8935 66.4226L78.5449 82.6807Z" fill="white"/>
</g>
</svg>
