<svg width="52" height="52" viewBox="0 0 52 52" fill="none" xmlns="http://www.w3.org/2000/svg">
<path d="M10.0023 30.4386V15.282H4.29579C1.92339 15.282 0 17.2053 0 19.5778V26.1413C0 28.5137 1.92339 30.4387 4.29579 30.4387H10.0023V30.4386Z" fill="#686870"/>
<path d="M32.2318 8.36459L22.1469 13.7585C20.2759 14.7583 18.1876 15.2819 16.0675 15.2819H12.6302V30.4385H16.0675C18.1876 30.4385 20.276 30.9606 22.1469 31.9619L32.2318 37.3558V38.673H34.8581V7.04752H32.2318V8.36459ZM32.2604 34.4249L23.372 29.6705C21.1329 28.4723 18.6065 27.8392 16.0675 27.8392H15.228V17.8797H16.0675C18.6065 17.8797 21.1329 17.2465 23.372 16.0484L32.2604 11.2956V34.4249Z" fill="#686870"/>
<path d="M37.8892 19.8285H35.7675V25.892H37.8892V19.8285Z" fill="#686870"/>
<path d="M1.39484 41.3455V43.0292C1.39484 44.0924 2.25649 44.9526 3.31975 44.9526H6.52852C7.59015 44.9526 8.45191 44.0924 8.45191 43.0292V41.9739L11.7448 32.8776H4.06085L1.39484 41.3455Z" fill="#686870"/>
<path d="M52 22.0565H42.9705V23.6799H52V22.0565Z" fill="#686870"/>
<path d="M49.494 13.5223L48.6672 12.1242L41.5497 16.3328L42.3765 17.731L49.494 13.5223Z" fill="#686870"/>
<path d="M41.5518 29.0088L48.6691 33.2173L49.4959 31.8208L42.3786 27.6107L41.5518 29.0088Z" fill="#686870"/>
</svg>
