<svg width="200" height="200" viewBox="0 0 200 200" fill="none" xmlns="http://www.w3.org/2000/svg">
<path d="M43.75 18.75L70.4102 83.4961C54.4356 93.4308 43.75 111.097 43.75 131.25C43.75 162.262 68.9813 187.5 100 187.5C131.019 187.5 156.25 162.262 156.25 131.25C156.25 111.097 145.564 93.4308 129.59 83.4961L156.25 18.75H142.737L118.286 78.1128C114.179 76.695 109.881 75.7093 105.408 75.2808L128.674 18.75H115.161L91.7114 75.6836C88.266 76.1957 84.9273 77.0036 81.7139 78.1128L57.2632 18.75H43.75ZM71.3257 18.75L87.207 57.3364L93.9697 40.918L84.8389 18.75H71.3257ZM100 87.5C124.119 87.5 143.75 107.125 143.75 131.25C143.75 155.375 124.119 175 100 175C75.8813 175 56.25 155.375 56.25 131.25C56.25 107.125 75.8813 87.5 100 87.5ZM100 107.263L92.7002 123.633L75 125.574L88.2446 137.476L84.5215 155.042L100 146.106L115.479 155.042L111.755 137.476L125 125.574L107.3 123.633L100 107.263Z" fill="#F0B214"/>
</svg>
