<svg width="125" height="125" viewBox="0 0 125 125" fill="none" xmlns="http://www.w3.org/2000/svg">
<path d="M27.3438 11.7188L44.0063 52.1851C34.0223 58.3942 27.3438 69.4353 27.3438 82.0312C27.3438 101.414 43.1133 117.188 62.5 117.188C81.8867 117.188 97.6562 101.414 97.6562 82.0312C97.6562 69.4353 90.9777 58.3942 80.9937 52.1851L97.6562 11.7188H89.2105L73.9288 48.8205C71.3616 47.9344 68.6754 47.3183 65.8798 47.0505L80.4214 11.7188H71.9757L57.3196 47.3022C55.1663 47.6223 53.0796 48.1273 51.0712 48.8205L35.7895 11.7188H27.3438ZM44.5786 11.7188L54.5044 35.8353L58.7311 25.5737L53.0243 11.7188H44.5786ZM62.5 54.6875C77.5742 54.6875 89.8438 66.9531 89.8438 82.0312C89.8438 97.1094 77.5742 109.375 62.5 109.375C47.4258 109.375 35.1562 97.1094 35.1562 82.0312C35.1562 66.9531 47.4258 54.6875 62.5 54.6875ZM62.5 67.0395L57.9376 77.2705L46.875 78.4836L55.1529 85.9222L52.8259 96.9009L62.5 91.3162L72.1741 96.9009L69.8471 85.9222L78.125 78.4836L67.0624 77.2705L62.5 67.0395Z" fill="#686870"/>
</svg>
