<svg width="63" height="63" viewBox="0 0 63 63" fill="none" xmlns="http://www.w3.org/2000/svg">
<path d="M13.7812 5.90625L22.1792 26.3013C17.1472 29.4307 13.7812 34.9954 13.7812 41.3438C13.7812 51.1127 21.7291 59.0625 31.5 59.0625C41.2709 59.0625 49.2188 51.1127 49.2188 41.3438C49.2188 34.9954 45.8528 29.4307 40.8208 26.3013L49.2188 5.90625H44.9621L37.2601 24.6055C35.9663 24.1589 34.6124 23.8484 33.2034 23.7134L40.5324 5.90625H36.2758L28.8891 23.8403C27.8038 24.0016 26.7521 24.2561 25.7399 24.6055L18.0379 5.90625H13.7812ZM22.4676 5.90625L27.4702 18.061L29.6005 12.8892L26.7242 5.90625H22.4676ZM31.5 27.5625C39.0974 27.5625 45.2812 33.7444 45.2812 41.3438C45.2812 48.9431 39.0974 55.125 31.5 55.125C23.9026 55.125 17.7188 48.9431 17.7188 41.3438C17.7188 33.7444 23.9026 27.5625 31.5 27.5625ZM31.5 33.7879L29.2006 38.9443L23.625 39.5557L27.7971 43.3048L26.6243 48.8381L31.5 46.0234L36.3757 48.8381L35.2029 43.3048L39.375 39.5557L33.7994 38.9443L31.5 33.7879Z" fill="#F08014"/>
</svg>
