<svg width="63" height="63" viewBox="0 0 63 63" fill="none" xmlns="http://www.w3.org/2000/svg">
<g clip-path="url(#clip0_297_2)">
<path d="M57.4875 49.2275L56.8925 48.7025C55.2045 47.1986 53.7271 45.4739 52.5 43.575C51.1599 40.9545 50.3567 38.0927 50.1375 35.1575V26.5125C50.1491 21.9023 48.4768 17.4466 45.4348 13.9825C42.3928 10.5183 38.1905 8.28427 33.6175 7.70001V5.44251C33.6175 4.8229 33.3714 4.22867 32.9333 3.79053C32.4951 3.3524 31.9009 3.10626 31.2813 3.10626C30.6617 3.10626 30.0674 3.3524 29.6293 3.79053C29.1912 4.22867 28.945 4.8229 28.945 5.44251V7.73501C24.413 8.36139 20.2615 10.609 17.2594 14.0614C14.2574 17.5139 12.6083 21.9374 12.6175 26.5125V35.1575C12.3983 38.0927 11.5951 40.9545 10.255 43.575C9.04907 45.4691 7.59537 47.1936 5.93252 48.7025L5.33752 49.2275V54.1625H57.4875V49.2275Z" fill="#F08014"/>
<path d="M26.8101 56C26.9635 57.1093 27.5132 58.1256 28.3576 58.8612C29.2019 59.5968 30.284 60.002 31.4038 60.002C32.5237 60.002 33.6057 59.5968 34.4501 58.8612C35.2944 58.1256 35.8441 57.1093 35.9976 56H26.8101Z" fill="#F08014"/>
</g>
<defs>
<clipPath id="clip0_297_2">
<rect width="63" height="63" fill="white"/>
</clipPath>
</defs>
</svg>
