<svg width="63" height="63" viewBox="0 0 63 63" fill="none" xmlns="http://www.w3.org/2000/svg">
<g clip-path="url(#clip0_141_10)">
<path d="M41.3438 3.9375C38.5769 3.93679 35.8483 4.58423 33.3767 5.82793C30.9051 7.07163 28.7592 8.877 27.111 11.0994C25.4628 13.3217 24.3581 15.8993 23.8854 18.6255C23.4127 21.3517 23.5852 24.1507 24.3891 26.7982L3.9375 47.25V59.0625H15.75L36.2016 38.6107C38.6388 39.3507 41.2068 39.5566 43.7308 39.2142C46.2547 38.8719 48.6752 37.9895 50.8272 36.627C52.9792 35.2646 54.8122 33.4543 56.2013 31.3193C57.5903 29.1844 58.5028 26.7751 58.8764 24.2556C59.2501 21.7361 59.0761 19.1657 58.3665 16.7195C57.6568 14.2733 56.4281 12.0089 54.7641 10.0805C53.1001 8.15216 51.04 6.60522 48.724 5.54512C46.4081 4.48503 43.8908 3.9367 41.3438 3.9375ZM41.3438 35.4375C39.9881 35.4367 38.64 35.2362 37.3429 34.8425L35.0851 34.1578L33.4172 35.8257L27.1544 42.0887L24.4403 39.375L21.6563 42.159L24.3706 44.8731L21.2483 47.9956L18.534 45.2812L15.75 48.0653L18.4643 50.7794L14.1191 55.125H7.875V48.8809L27.1733 29.5826L28.8412 27.9143L28.1575 25.6567C27.316 22.8827 27.3706 19.914 28.3137 17.1729C29.2567 14.4318 31.0402 12.0578 33.4102 10.3887C35.7803 8.71959 38.6164 7.84035 41.515 7.87605C44.4136 7.91174 47.2271 8.86054 49.5554 10.5875C51.8836 12.3145 53.6081 14.7316 54.4833 17.4951C55.3586 20.2587 55.3402 23.2278 54.4306 25.9803C53.5211 28.7327 51.7668 31.1283 49.4172 32.8261C47.0677 34.524 44.2426 35.4378 41.3438 35.4375Z" fill="#686870"/>
<path d="M43.3125 23.625C45.4871 23.625 47.25 21.8621 47.25 19.6875C47.25 17.5129 45.4871 15.75 43.3125 15.75C41.1379 15.75 39.375 17.5129 39.375 19.6875C39.375 21.8621 41.1379 23.625 43.3125 23.625Z" fill="#686870"/>
</g>
<defs>
<clipPath id="clip0_141_10">
<rect width="63" height="63" fill="white"/>
</clipPath>
</defs>
</svg>
