<svg width="55" height="55" viewBox="0 0 55 55" fill="none" xmlns="http://www.w3.org/2000/svg">
<path d="M12.415 44.4531V52.9725C12.415 54.0559 13.2687 54.9993 14.352 54.9993H40.648C41.7313 54.9993 42.585 54.0559 42.585 52.9725V44.4531H12.415ZM27.5 52.0329C26.3375 52.0329 25.395 51.0904 25.395 49.928C25.395 48.7656 26.3376 47.8231 27.5 47.8231C28.6624 47.8231 29.6049 48.7656 29.6049 49.928C29.6049 51.0904 28.6625 52.0329 27.5 52.0329Z" fill="#F08014"/>
<path d="M42.5849 9.47852H12.415V41.7844H42.5849V9.47852Z" fill="#F08014"/>
<path d="M40.6482 0H14.352C13.2688 0 12.415 0.943379 12.415 2.02673V6.80829H42.5849V2.02673C42.585 0.943379 41.7313 0 40.6482 0Z" fill="#F08014"/>
</svg>
