<svg width="86" height="86" viewBox="0 0 86 86" fill="none" xmlns="http://www.w3.org/2000/svg">
<g clip-path="url(#clip0_301_92)">
<rect width="86" height="86" rx="43" fill="#F08014"/>
<path d="M73.4211 73.4211C90.193 56.6491 90.193 29.3509 73.4211 12.5789C56.6491 -4.19298 29.3509 -4.19298 12.5789 12.5789C-4.19298 29.3509 -4.19298 56.6491 12.5789 73.4211C29.3509 90.193 56.6491 90.193 73.4211 73.4211ZM15.614 15.614C30.7193 0.508772 55.2807 0.508772 70.386 15.614C85.4912 30.7193 85.4912 55.2807 70.386 70.386C55.2807 85.4912 30.7193 85.4912 15.614 70.386C0.508772 55.2807 0.526316 30.7193 15.614 15.614Z" fill="#F08014"/>
<path d="M43 59.1053C43.5965 59.1053 44.1228 58.8597 44.5263 58.4737C44.9123 58.0877 45.1579 57.5439 45.1579 56.9474V45.1404H56.9649C57.5614 45.1404 58.0877 44.8948 58.4912 44.5088C58.8772 44.1228 59.1228 43.579 59.1228 42.9825C59.1228 41.7895 58.1579 40.8246 56.9825 40.8421H45.1754V29.0351C45.1754 27.8421 44.2105 26.8772 43.0351 26.8948C41.8421 26.8948 40.8772 27.8597 40.8947 29.0351V40.8421H29.0877C27.8947 40.8421 26.9298 41.807 26.9474 42.9825C26.9474 44.1755 27.9123 45.1404 29.0877 45.1228H40.8947V56.9299C40.8421 58.1404 41.807 59.1053 43 59.1053Z" fill="white"/>
</g>
<defs>
<clipPath id="clip0_301_92">
<rect width="86" height="86" rx="43" fill="white"/>
</clipPath>
</defs>
</svg>
