<svg width="764" height="764" viewBox="0 0 764 764" fill="none" xmlns="http://www.w3.org/2000/svg">
<path d="M382 11.9375C177.57 11.9375 11.9375 177.57 11.9375 382C11.9375 586.43 177.57 752.062 382 752.062C586.43 752.062 752.062 586.43 752.062 382C752.062 177.57 586.43 11.9375 382 11.9375ZM382 680.438C217.412 680.438 83.5625 546.588 83.5625 382C83.5625 217.412 217.412 83.5625 382 83.5625C546.588 83.5625 680.438 217.412 680.438 382C680.438 546.588 546.588 680.438 382 680.438ZM393.938 453.625C374.241 453.625 358.125 469.741 358.125 489.438C358.125 509.134 374.241 525.25 393.938 525.25C429.452 525.25 463.026 540.918 485.856 568.225C497.943 582.848 520.475 585.982 536.292 572.851C551.512 560.167 553.602 537.635 540.918 522.415C504.359 478.694 450.79 453.625 393.938 453.625ZM262.625 358.125C289.037 358.125 310.375 336.787 310.375 310.375C310.375 283.963 289.037 262.625 262.625 262.625C236.213 262.625 214.875 283.963 214.875 310.375C214.875 336.787 236.213 358.125 262.625 358.125ZM501.375 262.625C474.963 262.625 453.625 283.963 453.625 310.375C453.625 336.787 474.963 358.125 501.375 358.125C527.787 358.125 549.125 336.787 549.125 310.375C549.125 283.963 527.787 262.625 501.375 262.625ZM254.269 410.053C237.258 432.884 199.953 485.558 199.953 511.671C199.953 545.544 228.006 573 262.625 573C297.244 573 325.297 545.544 325.297 511.671C325.297 485.558 287.992 432.884 270.981 410.053C266.803 404.532 258.447 404.532 254.269 410.053Z" fill="#F08014"/>
</svg>
