<svg width="63" height="63" viewBox="0 0 63 63" fill="none" xmlns="http://www.w3.org/2000/svg">
<g clip-path="url(#clip0_297_53)">
<path d="M31.5 0C14.0727 0 0 14.116 0 31.5C0 48.9041 14.0987 63 31.5 63C48.9796 63 63 48.8374 63 31.5C63 14.0751 48.8736 0 31.5 0ZM47.7099 50.0527C43.2198 53.9876 37.5255 56.1373 31.5 56.1373C25.4756 56.1373 19.7823 53.9883 15.2925 50.0549C14.6852 49.5229 14.4107 48.7052 14.5726 47.9142C16.1236 40.3384 20.9491 34.3637 27.0915 32.3979C23.8862 30.5005 21.6863 26.6023 21.6863 22.098C21.6863 15.7305 26.0801 10.5686 31.5 10.5686C36.9199 10.5686 41.3137 15.7305 41.3137 22.098C41.3137 26.6016 39.1145 30.4993 35.9101 32.397C42.0524 34.3623 46.878 40.3369 48.4296 47.912C48.5914 48.7019 48.3163 49.5213 47.7099 50.0527Z" fill="#F08014"/>
</g>
<defs>
<clipPath id="clip0_297_53">
<rect width="63" height="63" fill="white"/>
</clipPath>
</defs>
</svg>
