<svg width="37" height="55" viewBox="0 0 37 55" fill="none" xmlns="http://www.w3.org/2000/svg">
<path d="M18.5 0C8.30145 0 0 8.34317 0 18.6005C0 33.3896 16.5255 52.7104 17.2285 53.5289L18.5 55L19.7715 53.5255C20.4745 52.7104 37 33.3896 37 18.6005C37 8.34317 28.6985 0 18.5 0ZM18.5 49.7648C14.6453 44.949 3.36364 29.8826 3.36364 18.6005C3.36364 10.21 10.1548 3.38191 18.5 3.38191C26.8452 3.38191 33.6364 10.21 33.6364 18.6005C33.6364 29.8724 22.3547 44.949 18.5 49.7648ZM18.5 8.92486C12.9365 8.92486 8.40909 13.4769 8.40909 19.0706C8.40909 24.6643 12.9365 29.2163 18.5 29.2163C24.0635 29.2163 28.5909 24.6643 28.5909 19.0706C28.5909 13.4769 24.0635 8.92486 18.5 8.92486ZM18.5 25.8344C14.7899 25.8344 11.7727 22.8008 11.7727 19.0706C11.7727 15.3403 14.7899 12.3068 18.5 12.3068C22.2101 12.3068 25.2273 15.3403 25.2273 19.0706C25.2273 22.8008 22.2101 25.8344 18.5 25.8344Z" fill="#686870"/>
</svg>
